<?xml version="1.0" ?><svg data-name="Layer 1" id="Layer_1" viewBox="0 0 64 64" xmlns="http://www.w3.org/2000/svg"><path d="M29,24v18c0,.11,.02,.21,.05,.32l2,6c.14,.41,.52,.68,.95,.68s.81-.28,.95-.68l2-6c.03-.1,.05-.21,.05-.32V24c0-1.65-1.35-3-3-3s-3,1.35-3,3Zm3,20.84l-.61-1.84h1.23l-.61,1.84Zm1-3.84h-2v-14h2v14Zm0-17v1h-2v-1c0-.55,.45-1,1-1s1,.45,1,1Z"/><path d="M60,57H4c-.55,0-1-.45-1-1s.45-1,1-1H31c1.1,0,2-.9,2-2v-2h-2v2H4c-1.65,0-3,1.35-3,3s1.35,3,3,3H60c.55,0,1,.45,1,1s-.45,1-1,1h-28v2h28c1.65,0,3-1.35,3-3s-1.35-3-3-3Z"/><rect height="2" width="2" x="28" y="61"/><rect height="2" width="2" x="24" y="61"/><rect height="2" width="2" x="20" y="61"/><rect height="2" width="2" x="16" y="61"/><rect height="2" width="2" x="12" y="61"/><rect height="2" width="2" x="8" y="61"/><rect height="2" width="2" x="4" y="61"/><path d="M16.74,10.97l6.26,1.67v1.36c0,2.76,2.24,5,5,5h8c2.76,0,5-2.24,5-5v-1.36l3-.8v2.35c-1.16,.41-2,1.51-2,2.82s.84,2.4,2,2.82v2.18h2v-2.18c1.16-.41,2-1.51,2-2.82s-.84-2.4-2-2.82v-2.88l1.26-.34c.4-.11,.69-.44,.74-.85,.05-.41-.16-.8-.52-1L32.47,1.12c-.29-.16-.65-.16-.94,0l-15,8c-.36,.19-.57,.59-.52,1,.05,.41,.34,.75,.74,.85Zm22.26,3.03c0,1.65-1.35,3-3,3h-8c-1.65,0-3-1.35-3-3v-.83l6.74,1.8c.08,.02,.17,.03,.26,.03s.17-.01,.26-.03l6.74-1.8v.83Zm6,2c.55,0,1,.45,1,1s-.45,1-1,1-1-.45-1-1,.45-1,1-1ZM32,3.13l12.29,6.55-12.29,3.28-12.29-3.28,12.29-6.55Z"/></svg>